<svg width="15" height="14" viewBox="0 0 15 14" fill="none" xmlns="http://www.w3.org/2000/svg">
<path fill-rule="evenodd" clip-rule="evenodd" d="M6.22379 0.515419C6.60449 -0.171806 7.5926 -0.171806 7.9733 0.515419L14.0704 11.5221C14.4396 12.1887 13.9576 13.0067 13.1956 13.0067H1.00144C0.239495 13.0067 -0.24253 12.1887 0.126679 11.5221L6.22379 0.515419ZM6.09854 4.10523C6.09854 3.55296 6.54626 3.10523 7.09854 3.10523C7.65083 3.10523 8.09854 3.55296 8.09854 4.10523V7.31651C8.09854 7.86878 7.65083 8.31651 7.09854 8.31651C6.54626 8.31651 6.09854 7.86878 6.09854 7.31651V4.10523ZM7.09854 9.35914C6.54626 9.35914 6.09854 9.80686 6.09854 10.3591V10.4436C6.09854 10.9959 6.54626 11.4436 7.09854 11.4436C7.65083 11.4436 8.09854 10.9959 8.09854 10.4436V10.3591C8.09854 9.80686 7.65083 9.35914 7.09854 9.35914Z" fill="#FF4A4A"/>
</svg>
