<svg width="50" height="50" viewBox="0 0 50 50" fill="none" xmlns="http://www.w3.org/2000/svg">
<circle cx="25" cy="25" r="25" fill="#272528"/>
<path fill-rule="evenodd" clip-rule="evenodd" d="M30.0755 29.8382C33.0195 28.1354 35.0002 24.9525 35.0002 21.307C35.0002 15.8678 30.5909 11.4585 25.1517 11.4585C19.7125 11.4585 15.3032 15.8678 15.3032 21.307C15.3032 24.9521 17.2836 28.1348 20.2271 29.8377V32.7968C20.2271 33.7033 20.9619 34.4382 21.8685 34.4382H28.4341C29.3406 34.4382 30.0755 33.7033 30.0755 32.7968V29.8382Z" fill="white"/>
<path d="M21.8687 36.0796H28.4343V36.9003C28.4343 37.8068 27.6994 38.5417 26.7929 38.5417H23.5101C22.6035 38.5417 21.8687 37.8068 21.8687 36.9003V36.0796Z" fill="white"/>
</svg>
