<svg width="101" height="51" viewBox="0 0 101 51" fill="none" xmlns="http://www.w3.org/2000/svg">
<path d="M13.4344 45.0005H14.3846V40.4688H10.6569V41.3751H13.3174V41.419C13.3174 42.9831 12.1479 44.2257 10.4084 44.2257C8.33253 44.2257 7.01688 42.7346 7.01688 40.2495V40.1472C7.01688 37.6036 8.34715 36.0686 10.3937 36.0686C11.9725 36.0686 12.9812 36.7703 13.2882 38.4514L14.3846 38.4368C14.0045 36.2294 12.6157 35.1331 10.423 35.1331C7.73318 35.1331 5.93511 37.0919 5.93511 40.2203C5.93511 43.2609 7.66009 45.1613 10.3353 45.1613C11.841 45.1613 12.9227 44.4742 13.4344 43.3486V45.0005ZM20.2913 44.2257C18.0839 44.2257 16.7244 42.6615 16.7244 40.191V40.0741C16.7244 37.5889 18.1132 36.0686 20.3352 36.0686C22.5279 36.0686 23.9021 37.6182 23.9021 40.0887V40.2056C23.9021 42.6908 22.5133 44.2257 20.2913 44.2257ZM20.2767 45.1613C23.1419 45.1613 24.9838 43.1732 24.9838 40.1618C24.9838 37.1358 23.1419 35.1331 20.3498 35.1331C17.4846 35.1331 15.628 37.1212 15.628 40.1326C15.628 43.1586 17.47 45.1613 20.2767 45.1613ZM25.0595 35.2939L28.6411 45.0005H29.7667L33.3628 35.2939H32.281L29.255 43.7872L26.1852 35.2939H25.0595ZM39.0444 39.4163H35.4775V36.2148H40.8863V35.2939H34.4249V45.0005H41.2079V44.0795H35.4775V40.3372H39.0444V39.4163ZM42.4051 35.2939V45.0005H43.4576V40.9073H45.1095C47.3754 40.9073 48.1648 42.5154 48.4425 44.7374L48.4718 45.0005H49.5535L49.5097 44.635C49.2465 42.413 48.5302 40.9512 46.8053 40.4834C48.5448 40.2349 49.2758 39.1531 49.2758 37.8082C49.2758 36.171 48.1355 35.2939 45.7089 35.2939H42.4051ZM43.4576 36.1856H45.7381C47.4485 36.1856 48.2232 36.6826 48.2232 37.8813C48.2232 39.08 47.4338 40.0302 45.4019 40.0302H43.4576V36.1856ZM52.0425 35.2939H50.7707V45.0005H51.794V36.6972L57.5244 45.0297H58.5916V35.2939H57.5683V43.3925L52.0425 35.2939ZM59.7362 45.0005H60.8179L61.9582 41.8575H65.9051L67.0308 45.0005H68.1564L64.6041 35.2792H63.3469L59.7362 45.0005ZM63.9316 36.361L65.5981 40.9512H62.2798L63.9316 36.361ZM70.5725 35.2939H69.3007V45.0005H70.324V36.6972L76.0544 45.0297H77.1216V35.2939H76.0983V43.3925L70.5725 35.2939ZM82.9138 45.1613C85.0042 45.1613 86.773 44.1088 87.1531 41.3751L86.0421 41.3605C85.7351 43.5825 84.4049 44.2111 82.943 44.2111C81.0134 44.2111 79.5808 42.7346 79.5808 40.191V40.1033C79.5808 37.5743 81.0134 36.0833 82.9576 36.0833C84.4341 36.0833 85.6913 36.6972 86.0275 38.8754L87.1385 38.8608C86.7292 36.1563 85.0188 35.1331 82.9576 35.1331C80.414 35.1331 78.4844 37.0627 78.4844 40.1618C78.4844 43.217 80.3994 45.1613 82.9138 45.1613ZM93.0354 39.4163H89.4685V36.2148H94.8774V35.2939H88.416V45.0005H95.199V44.0795H89.4685V40.3372H93.0354V39.4163Z" fill="#FF4A4A"/>
<path fill-rule="evenodd" clip-rule="evenodd" d="M64.6586 25.2501H60.3951C59.5942 25.2501 58.945 24.6025 58.945 23.8045V12.5691L51.461 17.2484C50.8332 17.6411 50.0347 17.6411 49.4068 17.2484L41.9228 12.5686V23.8045C41.9228 24.6025 41.2732 25.2501 40.4728 25.2501H36.2093C35.4079 25.2501 34.7593 24.6025 34.7593 23.8045V2.14944C34.7593 0.598823 36.5022 -0.317184 37.785 0.559311L49.6147 8.63955C50.1082 8.97733 50.7597 8.97733 51.2537 8.63955L63.0824 0.559311C64.3657 -0.317666 66.1086 0.598341 66.1086 2.14895V23.8045C66.1086 24.6025 65.4595 25.2501 64.6586 25.2501Z" fill="#FF4A4A"/>
<path fill-rule="evenodd" clip-rule="evenodd" d="M28.3364 25.057L1.92411 25.0565C0.861522 25.0565 0 24.1971 0 23.137V1.4401C0 0.644956 0.646021 0.000488281 1.44309 0.000488281H5.68624C6.48282 0.000488281 7.12932 0.644956 7.12932 1.4401V17.9443L23.1312 17.9448V1.4401C23.1312 0.644956 23.7768 0.000488281 24.5743 0.000488281H28.8174C29.614 0.000488281 30.2605 0.644956 30.2605 1.4401V23.1375C30.2605 24.1975 29.399 25.057 28.3364 25.057Z" fill="#FF4A4A"/>
<path fill-rule="evenodd" clip-rule="evenodd" d="M72.4681 0L98.8804 0.000479872C99.943 0.000479872 100.805 0.85993 100.805 1.91997V23.6169C100.805 24.412 100.158 25.0565 99.3614 25.0565H95.1183C94.3212 25.0565 93.6752 24.412 93.6752 23.6169V8.0724C93.6752 7.54262 93.2442 7.11266 92.7131 7.11266L78.6353 7.11218C78.1043 7.11218 77.6733 7.54166 77.6733 8.07192V23.6169C77.6733 24.412 77.0273 25.0565 76.2302 25.0565H71.987C71.19 25.0565 70.5439 24.412 70.5439 23.6169V1.91949C70.5439 0.85945 71.4055 0 72.4681 0Z" fill="#FF4A4A"/>
<path fill-rule="evenodd" clip-rule="evenodd" d="M82.1082 13.1868V17.4583C82.1082 18.2481 82.7547 18.8883 83.5525 18.8883H87.7953C88.5931 18.8883 89.2396 18.2481 89.2396 17.4583V13.1868C89.2396 12.397 88.5931 11.7568 87.7953 11.7568H83.5525C82.7547 11.7568 82.1082 12.397 82.1082 13.1868Z" fill="#FF4A4A"/>
</svg>
