<svg width="150" height="44" viewBox="0 0 150 44" fill="none" xmlns="http://www.w3.org/2000/svg">
<path fill-rule="evenodd" clip-rule="evenodd" d="M64.6586 25.2501H60.3951C59.5942 25.2501 58.9451 24.6025 58.9451 23.8045V12.5691L51.4611 17.2484C50.8332 17.6411 50.0347 17.6411 49.4069 17.2484L41.9229 12.5686V23.8045C41.9229 24.6025 41.2733 25.2501 40.4728 25.2501H36.2093C35.4079 25.2501 34.7593 24.6025 34.7593 23.8045V2.14944C34.7593 0.598823 36.5022 -0.317184 37.785 0.559311L49.6147 8.63955C50.1082 8.97733 50.7597 8.97733 51.2537 8.63955L63.0824 0.559311C64.3657 -0.317666 66.1086 0.598341 66.1086 2.14895V23.8045C66.1086 24.6025 65.4595 25.2501 64.6586 25.2501Z" fill="#FF4A4A"/>
<path fill-rule="evenodd" clip-rule="evenodd" d="M28.3364 25.057L1.92411 25.0565C0.861522 25.0565 0 24.1971 0 23.137V1.4401C0 0.644956 0.646021 0.000488281 1.44309 0.000488281H5.68624C6.48282 0.000488281 7.12932 0.644956 7.12932 1.4401V17.9443L23.1312 17.9448V1.4401C23.1312 0.644956 23.7768 0.000488281 24.5743 0.000488281H28.8174C29.614 0.000488281 30.2605 0.644956 30.2605 1.4401V23.1375C30.2605 24.1975 29.399 25.057 28.3364 25.057Z" fill="#FF4A4A"/>
<path fill-rule="evenodd" clip-rule="evenodd" d="M72.468 0L98.8803 0.000479872C99.9429 0.000479872 100.804 0.85993 100.804 1.91997V23.6169C100.804 24.412 100.158 25.0565 99.3614 25.0565H95.1182C94.3211 25.0565 93.6751 24.412 93.6751 23.6169V8.0724C93.6751 7.54262 93.2441 7.11266 92.7131 7.11266L78.6353 7.11218C78.1042 7.11218 77.6732 7.54166 77.6732 8.07192V23.6169C77.6732 24.412 77.0272 25.0565 76.2301 25.0565H71.987C71.1899 25.0565 70.5439 24.412 70.5439 23.6169V1.91949C70.5439 0.85945 71.4054 0 72.468 0Z" fill="#FF4A4A"/>
<path fill-rule="evenodd" clip-rule="evenodd" d="M82.1081 13.1868V17.4583C82.1081 18.2481 82.7547 18.8883 83.5524 18.8883H87.7953C88.593 18.8883 89.2396 18.2481 89.2396 17.4583V13.1868C89.2396 12.397 88.593 11.7568 87.7953 11.7568H83.5524C82.7547 11.7568 82.1081 12.397 82.1081 13.1868Z" fill="#FF4A4A"/>
<path d="M5.124 41.39C3.598 41.39 2.73 40.312 2.73 38.436V38.268C2.73 36.364 3.612 35.314 5.138 35.314C6.664 35.314 7.518 36.378 7.518 38.254V38.422C7.518 40.326 6.636 41.39 5.124 41.39ZM5.082 43.196C7.938 43.196 9.87 41.222 9.87 38.352C9.87 35.468 7.952 33.508 5.18 33.508C2.324 33.508 0.392 35.482 0.392 38.352C0.392 41.236 2.296 43.196 5.082 43.196ZM10.8979 33.704V43H13.1519V39.864H14.1879C16.8899 39.864 18.2059 38.674 18.2059 36.728C18.2059 34.684 16.9879 33.704 14.3279 33.704H10.8979ZM13.1519 35.258H14.1599C15.4899 35.258 16.0219 35.692 16.0219 36.728C16.0219 37.778 15.5319 38.324 14.1459 38.352H13.1519V35.258ZM26.2423 33.704H18.6823V35.468H21.3423V43H23.5963V35.468H26.2423V33.704ZM29.4911 33.704H27.2371V43H29.4911V33.704ZM34.3875 33.704H30.8315V43H32.7495V35.538L35.0175 43H36.7815L39.1335 35.496V43H41.3455V33.704H37.8735L36.0955 39.64L34.3875 33.704ZM44.9403 33.704H42.6863V43H44.9403V33.704ZM50.0467 43.168C52.3427 43.168 53.7427 41.978 53.7427 40.13C53.7427 38.226 52.1187 37.736 50.6207 37.428C49.4027 37.176 48.3247 37.036 48.3247 36.266C48.3247 35.58 48.8567 35.16 49.7387 35.16C50.9147 35.16 51.4747 35.65 51.6287 36.686H53.6587C53.4627 34.698 52.1047 33.508 49.7527 33.508C47.6107 33.508 46.0707 34.754 46.0707 36.532C46.0707 38.408 47.8067 38.94 49.3187 39.276C50.5227 39.528 51.4887 39.71 51.4887 40.396C51.4887 41.11 50.9427 41.53 49.9907 41.53C48.7027 41.53 48.1147 41.054 47.9047 39.976H45.8467C46.0987 41.852 47.4707 43.168 50.0467 43.168ZM61.5841 33.704H54.0241V35.468H56.6841V43H58.9381V35.468H61.5841V33.704ZM64.8329 33.704H62.5789V43H64.8329V33.704ZM70.3733 43.196C72.7393 43.196 74.4333 42.034 74.7133 39.444H72.5853C72.3753 40.802 71.6193 41.334 70.4433 41.334C69.0293 41.334 68.2453 40.298 68.2453 38.45V38.254C68.2453 36.42 69.0433 35.37 70.4853 35.37C71.5913 35.37 72.3193 35.916 72.5713 37.064H74.6713C74.2933 34.754 72.7673 33.508 70.4573 33.508C67.7413 33.508 65.9213 35.44 65.9213 38.366C65.9213 41.264 67.7133 43.196 70.3733 43.196ZM82.7529 41.39C81.2269 41.39 80.3589 40.312 80.3589 38.436V38.268C80.3589 36.364 81.2409 35.314 82.7669 35.314C84.2929 35.314 85.1469 36.378 85.1469 38.254V38.422C85.1469 40.326 84.2649 41.39 82.7529 41.39ZM82.7109 43.196C85.5669 43.196 87.4989 41.222 87.4989 38.352C87.4989 35.468 85.5809 33.508 82.8089 33.508C79.9529 33.508 78.0209 35.482 78.0209 38.352C78.0209 41.236 79.9249 43.196 82.7109 43.196ZM88.5268 33.704V43H90.7388V39.626H91.5788C93.1468 39.64 93.7208 40.76 93.9168 42.566C93.9308 42.678 93.9448 42.986 93.9448 43H96.2688C96.2548 42.888 96.2128 42.44 96.1848 42.272C95.9328 40.2 95.2888 39.108 93.8188 38.758C95.2048 38.464 96.0588 37.582 96.0588 36.252C96.0588 34.768 95.1068 33.704 92.2648 33.704H88.5268ZM90.7388 35.258H92.0268C93.3428 35.258 93.8608 35.72 93.8608 36.588C93.8608 37.414 93.2868 38.212 91.9148 38.212L90.7388 38.268V35.258ZM96.7865 43H98.7885L99.6005 40.676H102.82L103.618 43H105.984L102.694 33.704H100.188L96.7865 43ZM101.266 35.902L102.344 39.108H100.118L101.266 35.902ZM110.323 43.196C112.689 43.196 114.383 42.034 114.663 39.444H112.535C112.325 40.802 111.569 41.334 110.393 41.334C108.979 41.334 108.195 40.298 108.195 38.45V38.254C108.195 36.42 108.993 35.37 110.435 35.37C111.541 35.37 112.269 35.916 112.521 37.064H114.621C114.243 34.754 112.717 33.508 110.407 33.508C107.691 33.508 105.871 35.44 105.871 38.366C105.871 41.264 107.663 43.196 110.323 43.196ZM117.783 33.704H115.529V43H121.745V41.278H117.783V33.704ZM128.038 37.386H125.014V35.426H129.774V33.704H122.802V43H129.9V41.25H125.014V39.122H128.038V37.386Z" fill="#272528"/>
</svg>
